<svg width="119" height="73" viewBox="0 0 119 73" fill="none" xmlns="http://www.w3.org/2000/svg">
<path d="M16.4596 68.2246C16.4596 68.8368 16.3438 69.4083 16.1123 69.9389C15.8807 70.4695 15.5624 70.9348 15.1572 71.3348C14.7603 71.7348 14.2889 72.0491 13.7432 72.2776C13.2057 72.5062 12.631 72.6205 12.0191 72.6205H1.86054V70.1103H12.0191C12.2754 70.1103 12.5194 70.0613 12.7509 69.9634C12.9824 69.8654 13.185 69.7307 13.3587 69.5593C13.5323 69.3879 13.6688 69.1879 13.768 68.9593C13.8672 68.7307 13.9168 68.4858 13.9168 68.2246V67.6001H6.9336C5.97439 67.6001 5.07307 67.4205 4.22962 67.0613C3.38618 66.694 2.65023 66.2001 2.02178 65.5797C1.40161 64.9512 0.909596 64.2205 0.545758 63.3879C0.181919 62.5471 0 61.6532 0 60.7063V53.8124H2.54274V60.7063C2.54274 61.3104 2.65437 61.8777 2.87763 62.4083C3.10917 62.9308 3.42339 63.392 3.8203 63.792C4.21722 64.1838 4.68029 64.4981 5.20951 64.7348C5.74699 64.9634 6.32169 65.0818 6.9336 65.0899H8.91682C11.6782 65.0899 13.9168 62.8513 13.9168 60.0899V53.8124H16.4596V68.2246Z" fill="white"/>
<path d="M36.0324 67.6001H23.3311C22.711 67.6001 22.1321 67.4858 21.5946 67.2573C21.0572 67.0287 20.5858 66.7185 20.1806 66.3267C19.7755 65.9267 19.4571 65.4614 19.2256 64.9307C18.994 64.392 18.8783 63.8205 18.8783 63.2165C18.8783 62.6042 18.994 62.0328 19.2256 61.5022C19.4571 60.9716 19.7755 60.5063 20.1806 60.1063C20.5858 59.7063 21.0572 59.392 21.5946 59.1634C22.1321 58.9349 22.711 58.8206 23.3311 58.8206H32.2121V61.3308H23.3311C23.0665 61.3308 22.8185 61.3838 22.5869 61.4899C22.3554 61.5879 22.1528 61.7226 21.9792 61.894C21.8055 62.0654 21.6691 62.2654 21.5698 62.494C21.4706 62.7226 21.421 62.9634 21.421 63.2165C21.421 63.4777 21.4706 63.7226 21.5698 63.9512C21.6691 64.1716 21.8055 64.3675 21.9792 64.5389C22.1528 64.7103 22.3554 64.845 22.5869 64.943C22.8185 65.0409 23.0665 65.0899 23.3311 65.0899H33.4897V58.1961C33.4897 57.943 33.4359 57.7022 33.3284 57.4736C33.2292 57.2451 33.0928 57.0451 32.9191 56.8736C32.7455 56.7022 32.5429 56.5675 32.3113 56.4696C32.0798 56.3634 31.8359 56.3104 31.5795 56.3104H21.421V53.8124H31.5795C32.1997 53.8124 32.7785 53.9267 33.316 54.1553C33.8535 54.3839 34.3249 54.6981 34.73 55.0981C35.1352 55.49 35.4536 55.9512 35.6851 56.4818C35.9167 57.0124 36.0324 57.5838 36.0324 58.1961V67.6001Z" fill="white"/>
<path d="M42.135 67.6001H39.5922V53.8124H49.1182C50.0774 53.8124 50.9787 53.9961 51.8222 54.3634C52.6656 54.7226 53.4016 55.2165 54.03 55.8451C54.6585 56.4655 55.1546 57.1961 55.5185 58.0369C55.8823 58.8695 56.0642 59.7593 56.0642 60.7063V67.6001H53.5215V60.7063C53.5215 60.1022 53.4057 59.5348 53.1742 59.0042C52.9426 58.4736 52.6284 58.0124 52.2315 57.6206C51.8346 57.2206 51.3674 56.9063 50.8299 56.6777C50.3007 56.441 49.7301 56.3185 49.1182 56.3104H42.135V67.6001Z" fill="white"/>
<path d="M80.7597 58.8206C80.7597 60.0369 80.5613 61.1797 80.1644 62.2491C79.7757 63.3185 79.2217 64.2491 78.5023 65.0409C77.7829 65.8328 76.9188 66.4573 75.9099 66.9144C74.9094 67.3715 73.7972 67.6001 72.5734 67.6001H63.6056V65.0899H72.5734C73.4499 65.0899 74.2355 64.9267 74.9301 64.6001C75.6329 64.2736 76.2242 63.8287 76.7038 63.2654C77.1916 62.694 77.5638 62.0287 77.8201 61.2695C78.0847 60.5022 78.217 59.6859 78.217 58.8206C78.217 57.9553 78.0847 57.143 77.8201 56.3838C77.5638 55.6247 77.1916 54.9634 76.7038 54.4002C76.2242 53.8288 75.6329 53.3798 74.9301 53.0532C74.2355 52.7186 73.4499 52.5512 72.5734 52.5512H67.3404C64.579 52.5512 62.3404 54.7898 62.3404 57.5512V67.6001H59.7977V50.041H72.5734C73.7972 50.041 74.9094 50.2737 75.9099 50.739C76.9188 51.1961 77.7829 51.8247 78.5023 52.6247C79.2217 53.4165 79.7757 54.3471 80.1644 55.4165C80.5613 56.4777 80.7597 57.6124 80.7597 58.8206Z" fill="white"/>
<path d="M99.9605 58.1961C99.9605 58.8083 99.8447 59.3797 99.6132 59.9104C99.3817 60.441 99.0633 60.9063 98.6581 61.3063C98.2612 61.6981 97.7899 62.0083 97.2441 62.2369C96.7066 62.4654 96.1319 62.5797 95.52 62.5797H85.7832C85.9651 62.9471 86.1925 63.2859 86.4654 63.5961C86.7383 63.9063 87.0442 64.1716 87.3833 64.392C87.7223 64.6124 88.0903 64.7838 88.4872 64.9063C88.8924 65.0287 89.3141 65.0899 89.7523 65.0899H98.0628V67.6001H89.7523C88.7931 67.592 87.8918 67.4083 87.0484 67.0491C86.2049 66.6818 85.469 66.1879 84.8405 65.5675C84.2203 64.9389 83.7283 64.2083 83.3645 63.3756C83.0007 62.543 82.8187 61.6532 82.8187 60.7063C82.8187 59.7593 83.0007 58.8695 83.3645 58.0369C83.7283 57.2042 84.2203 56.4777 84.8405 55.8573C85.469 55.2287 86.2049 54.7349 87.0484 54.3757C87.8918 54.0083 88.7931 53.8206 89.7523 53.8124H95.52C96.1319 53.8124 96.7066 53.9267 97.2441 54.1553C97.7899 54.3839 98.2612 54.6981 98.6581 55.0981C99.0633 55.49 99.3817 55.9512 99.6132 56.4818C99.8447 57.0124 99.9605 57.5838 99.9605 58.1961ZM95.52 60.0818C95.7764 60.0818 96.0203 60.0328 96.2518 59.9348C96.4834 59.8369 96.686 59.7022 96.8596 59.5308C97.0333 59.3593 97.1697 59.1593 97.2689 58.9308C97.3681 58.7022 97.4178 58.4573 97.4178 58.1961C97.4178 57.943 97.3681 57.7022 97.2689 57.4736C97.1697 57.2451 97.0333 57.0451 96.8596 56.8736C96.686 56.7022 96.4834 56.5675 96.2518 56.4696C96.0203 56.3634 95.7764 56.3104 95.52 56.3104H89.7523C89.1901 56.3104 88.6608 56.4083 88.1647 56.6043C87.6768 56.8002 87.2386 57.0696 86.8499 57.4124C86.4695 57.7471 86.1512 58.1471 85.8948 58.6124C85.6468 59.0695 85.4855 59.5593 85.4111 60.0818H95.52Z" fill="white"/>
<path d="M119 53.8124L111.285 67.6001H108.383L100.717 53.8124H103.682L109.834 64.992L116.036 53.8124H119Z" fill="white"/>
<path d="M57.705 35.7336C57.705 37.7343 57.2291 39.6071 56.2772 41.3519C55.3485 43.0734 54.0716 44.5856 52.4464 45.8884C50.8445 47.1679 48.9639 48.1799 46.8048 48.9243C44.6456 49.6688 42.3356 50.041 39.8746 50.041H0V42.8873H39.8746C41.3373 42.8873 42.7186 42.7012 44.0188 42.329C45.3189 41.9568 46.4449 41.4449 47.3968 40.7936C48.3719 40.1422 49.1381 39.3861 49.6953 38.5253C50.2757 37.6413 50.5659 36.7107 50.5659 35.7336V35.7336C50.5659 33.7678 48.9723 32.1742 47.0065 32.1742H17.8304C15.3694 32.1742 13.0478 31.7089 10.8654 30.7784C8.70625 29.8478 6.81409 28.5799 5.18892 26.9747C3.58697 25.3462 2.32167 23.4502 1.393 21.2866C0.464333 19.0998 0 16.7734 0 14.3074V0H7.13912V14.3074C7.13912 15.7963 7.41772 17.1922 7.97492 18.4949C8.53212 19.7977 9.28666 20.9377 10.2385 21.9148C11.2136 22.8686 12.3513 23.6247 13.6514 24.183C14.9515 24.7413 16.3445 25.0205 17.8304 25.0205H40.5659C46.0887 25.0205 50.5659 20.5434 50.5659 15.0205V0H57.705V35.7336Z" fill="white"/>
<path d="M117.779 25.0205C117.779 28.4869 117.222 31.7438 116.108 34.7914C115.017 37.839 113.461 40.4911 111.441 42.7477C109.421 45.0044 106.995 46.7841 104.163 48.0868C101.354 49.3896 98.2311 50.041 94.795 50.041H69.6165V42.8873H94.795C97.256 42.8873 99.4615 42.422 101.412 41.4915C103.385 40.5609 105.045 39.293 106.392 37.6878C107.762 36.0593 108.806 34.1633 109.526 31.9997C110.269 29.8129 110.64 27.4865 110.64 25.0205C110.64 22.5545 110.269 20.2397 109.526 18.0762C108.806 15.9126 107.762 14.0282 106.392 12.423C105.045 10.7945 103.385 9.51501 101.412 8.58444C99.4615 7.63062 97.256 7.1537 94.795 7.1537H76.0644C70.5415 7.1537 66.0644 11.6309 66.0644 17.1537V50.041H58.9253V0H94.795C98.2311 0 101.354 0.663026 104.163 1.98908C106.995 3.29187 109.421 5.0832 111.441 7.36308C113.461 9.61969 115.017 12.2718 116.108 15.3194C117.222 18.3437 117.779 21.5774 117.779 25.0205Z" fill="white"/>
<path d="M80.496 18.2034L72.4352 25.4245L80.4713 32.4844H77.1528L70.1816 26.3923C70.0413 26.2765 69.934 26.1359 69.8597 25.9705C69.7854 25.805 69.7483 25.6313 69.7483 25.4493C69.7483 25.0688 69.8927 24.7463 70.1816 24.4816L77.2023 18.2034H80.496Z" fill="white"/>
<path d="M94.7851 16.1685L85.4613 33.9609H82.5638L91.9 16.1685H94.7851Z" fill="white"/>
<path d="M100.097 18.2034L107.118 24.4816C107.407 24.7463 107.551 25.0688 107.551 25.4493C107.551 25.6313 107.514 25.805 107.44 25.9705C107.365 26.1359 107.258 26.2765 107.118 26.3923L100.147 32.4844H96.8282L104.864 25.4245L96.8034 18.2034H100.097Z" fill="white"/>
</svg>
